<svg width="18" height="18" viewBox="0 0 18 18" fill="none" xmlns="http://www.w3.org/2000/svg">
<path d="M3.09905 5.38301V14.955C3.09532 15.4415 3.28498 15.9096 3.62627 16.2563C3.96757 16.603 4.4325 16.8 4.919 16.804H13.2381C13.7246 16.8 14.1895 16.603 14.5308 16.2563C14.8721 15.9096 15.0618 15.4415 15.058 14.955V5.38301L9.07403 0.756012L3.09905 5.38301Z" stroke="#FAB248" stroke-width="1.5" stroke-linecap="round" stroke-linejoin="round"/>
<path d="M1.05194 6.932L9.07904 0.75L17.106 6.932" stroke="#FAB248" stroke-width="1.5" stroke-linecap="round" stroke-linejoin="round"/>
<path d="M8.841 11.596C9.5529 11.596 10.13 11.0189 10.13 10.307C10.13 9.59511 9.5529 9.01801 8.841 9.01801C8.12911 9.01801 7.552 9.59511 7.552 10.307C7.552 11.0189 8.12911 11.596 8.841 11.596Z" stroke="#FAB248" stroke-width="0.7" stroke-linecap="round" stroke-linejoin="round"/>
</svg>
